<svg width="6" height="6" viewBox="0 0 6 6" fill="none" xmlns="http://www.w3.org/2000/svg">
<path d="M3 0C1.34297 0 0 1.34297 0 3C0 4.65703 1.34297 6 3 6C4.65703 6 6 4.65703 6 3C6 1.34297 4.65703 0 3 0ZM3 5.4375C1.65586 5.4375 0.5625 4.34402 0.5625 3C0.5625 1.65598 1.65586 0.5625 3 0.5625C4.34414 0.5625 5.4375 1.65598 5.4375 3C5.4375 4.34402 4.34414 5.4375 3 5.4375ZM2.98945 2.0625C3.23625 2.0625 3.46898 2.15991 3.64371 2.33648C3.75357 2.44598 3.93117 2.44781 4.0418 2.33831C4.15202 2.22881 4.15276 2.05085 4.04363 1.94023C3.76238 1.6564 3.38796 1.50007 2.98953 1.50007C2.59144 1.50007 2.21667 1.6564 1.93542 1.94023C1.35605 2.52476 1.35605 3.47538 1.93542 4.06015C2.21667 4.34398 2.59144 4.50031 2.98953 4.50031C3.38796 4.50031 3.76238 4.34398 4.04363 4.06015C4.15275 3.94955 4.15203 3.77163 4.0418 3.66206C3.9312 3.55294 3.75363 3.55403 3.64371 3.6639C3.46898 3.84038 3.23625 3.93788 2.98945 3.93788C2.7423 3.93788 2.50957 3.84047 2.33449 3.6639C1.97191 3.29804 1.97191 2.70261 2.33449 2.33616C2.51016 2.15977 2.74219 2.0625 2.98945 2.0625Z" fill="#F5F5F5"/>
</svg>
