<svg width="16" height="16" viewBox="0 0 16 16" fill="none" xmlns="http://www.w3.org/2000/svg">
<path d="M11.6667 4.33325H11.6738M4.66668 1.33325H11.3333C13.1743 1.33325 14.6667 2.82564 14.6667 4.66658V11.3333C14.6667 13.1742 13.1743 14.6666 11.3333 14.6666H4.66668C2.82573 14.6666 1.33334 13.1742 1.33334 11.3333V4.66658C1.33334 2.82564 2.82573 1.33325 4.66668 1.33325ZM10.6667 7.57992C10.749 8.13475 10.6542 8.7014 10.3958 9.19926C10.1375 9.69713 9.72877 10.1009 9.22776 10.353C8.72675 10.6052 8.15898 10.693 7.6052 10.6039C7.05143 10.5148 6.53985 10.2533 6.14324 9.85669C5.74662 9.46008 5.48516 8.9485 5.39606 8.39473C5.30695 7.84095 5.39472 7.27318 5.64689 6.77217C5.89907 6.27115 6.3028 5.86241 6.80067 5.60408C7.29853 5.34575 7.86518 5.25098 8.42001 5.33325C8.98596 5.41718 9.50991 5.68089 9.91447 6.08546C10.319 6.49002 10.5828 7.01397 10.6667 7.57992Z" stroke="#F5F5F5" stroke-linecap="round" stroke-linejoin="round"/>
</svg>
