<svg width="17" height="14" viewBox="0 0 17 14" fill="none" xmlns="http://www.w3.org/2000/svg">
<path d="M15.6667 1.0067C15.0283 1.45702 14.3214 1.80144 13.5733 2.0267C13.1718 1.56504 12.6382 1.23783 12.0447 1.08932C11.4512 0.940811 10.8263 0.978168 10.2547 1.19634C9.68311 1.41451 9.1923 1.80297 8.84866 2.30918C8.50502 2.81539 8.32513 3.41493 8.33334 4.0267V4.69337C7.16176 4.72375 6.00085 4.46391 4.95401 3.937C3.90716 3.41009 3.00688 2.63246 2.33334 1.67337C2.33334 1.67337 -0.333332 7.67337 5.66667 10.34C4.29369 11.272 2.6581 11.7393 1 11.6734C7 15.0067 14.3333 11.6734 14.3333 4.0067C14.3327 3.82101 14.3149 3.63577 14.28 3.45337C14.9604 2.78237 15.4406 1.93518 15.6667 1.0067Z" stroke="#F5F5F5" stroke-linecap="round" stroke-linejoin="round"/>
</svg>
